<svg xmlns="http://www.w3.org/2000/svg" xmlns:xlink="http://www.w3.org/1999/xlink" width="1080" zoomAndPan="magnify" viewBox="0 0 810 809.999993" height="1080" preserveAspectRatio="xMidYMid meet" version="1.0"><defs><clipPath id="bddb02e935"><path d="M 6.792969 6.792969 L 799.542969 6.792969 L 799.542969 799.542969 L 6.792969 799.542969 Z M 6.792969 6.792969 " clip-rule="nonzero"/></clipPath><clipPath id="692a4e5259"><path d="M 110.234375 223.179688 L 699.734375 223.179688 L 699.734375 583.179688 L 110.234375 583.179688 Z M 110.234375 223.179688 " clip-rule="nonzero"/></clipPath><clipPath id="d4649a9dc1"><path d="M 455 360 L 530 360 L 530 583.179688 L 455 583.179688 Z M 455 360 " clip-rule="nonzero"/></clipPath></defs><g clip-path="url(#bddb02e935)"><path fill="#ed1c24" d="M 403.351562 6.792969 C 184.691406 6.792969 6.792969 184.695312 6.792969 403.351562 C 6.792969 622.019531 184.691406 799.90625 403.351562 799.90625 C 622.007812 799.90625 799.90625 622.019531 799.90625 403.351562 C 799.90625 184.695312 622.007812 6.792969 403.351562 6.792969 Z M 403.351562 789.574219 C 190.390625 789.574219 17.132812 616.3125 17.132812 403.359375 C 17.132812 190.394531 190.390625 17.140625 403.351562 17.140625 C 616.308594 17.140625 789.570312 190.394531 789.570312 403.359375 C 789.574219 616.3125 616.304688 789.574219 403.351562 789.574219 Z M 403.351562 789.574219 " fill-opacity="1" fill-rule="nonzero"/></g><path fill="#ed1c24" d="M 403.351562 37.753906 C 201.753906 37.753906 37.75 201.765625 37.75 403.351562 C 37.75 604.945312 201.757812 768.953125 403.351562 768.953125 C 604.945312 768.953125 768.945312 604.945312 768.945312 403.351562 C 768.945312 201.765625 604.945312 37.753906 403.351562 37.753906 Z M 403.351562 37.753906 " fill-opacity="1" fill-rule="nonzero"/><g clip-path="url(#692a4e5259)"><path fill="#171717" d="M 699.761719 223.285156 L 290.234375 223.285156 C 242.152344 223.285156 196.949219 242.011719 162.953125 276.007812 C 128.953125 310.007812 110.230469 355.207031 110.230469 403.289062 C 110.230469 451.367188 128.953125 496.566406 162.953125 530.566406 C 196.949219 564.5625 242.152344 583.289062 290.234375 583.289062 L 343.25 583.289062 L 377.449219 508.863281 L 290.234375 508.863281 C 232.011719 508.863281 184.652344 461.503906 184.652344 403.289062 C 184.652344 345.070312 232.011719 297.707031 290.234375 297.707031 L 455.503906 297.707031 L 455.503906 514.769531 L 526.515625 297.707031 L 665.5625 297.707031 L 699.761719 223.285156 " fill-opacity="1" fill-rule="nonzero"/></g><g clip-path="url(#d4649a9dc1)"><path fill="#ffffff" d="M 455.503906 583.289062 L 529.921875 583.289062 L 529.921875 360.621094 Z M 455.503906 583.289062 " fill-opacity="1" fill-rule="nonzero"/></g></svg>